<svg version="1.1" id="Layer_1" xmlns="http://www.w3.org/2000/svg" xmlns:xlink="http://www.w3.org/1999/xlink" x="0px" y="0px"
	 width="100%" viewBox="0 0 512 512" enable-background="new 0 0 512 512" xml:space="preserve">
<path fill="#FFFFFF" opacity="1.000000" stroke="none" 
	d="
M513.000000,219.000000 
	C513.000000,316.961517 513.000000,414.923004 513.000000,512.942261 
	C342.438873,512.942261 171.877731,512.942261 1.000000,512.942261 
	C1.000000,415.310913 1.000000,317.621490 1.190849,219.592972 
	C1.381698,219.253876 1.836683,219.309799 1.883347,219.694244 
	C3.363747,223.703400 4.797482,227.328094 6.280316,231.287033 
	C14.033944,243.321686 24.397451,250.327545 39.000671,250.274536 
	C39.119942,250.490509 39.510036,250.790817 39.510036,250.790817 
	C39.510036,250.790817 39.999989,250.743347 40.465733,250.793579 
	C49.263378,250.802597 57.595276,250.761368 66.391792,250.813766 
	C70.685577,250.888290 74.514755,250.852615 78.343925,250.852524 
	C203.588028,250.849609 328.832123,250.868286 454.076202,250.810410 
	C462.697540,250.806427 471.365051,250.690445 479.928802,249.818527 
	C492.417786,248.546890 501.614716,241.844833 507.904724,230.590424 
	C509.725647,226.522583 511.362823,222.761292 513.000000,219.000000 
M333.793579,320.046326 
	C342.898438,313.436096 343.050140,301.568878 333.760254,293.320862 
	C322.034790,285.639679 309.158234,292.023895 307.353699,305.658783 
	C306.606110,311.307312 308.866821,317.399628 314.239410,320.493713 
	C320.275146,323.969757 326.892578,324.783752 333.793579,320.046326 
M53.724186,328.213409 
	C50.129250,327.475464 46.557949,326.272034 42.934891,326.088104 
	C32.619713,325.564484 26.936485,337.910431 28.392714,344.918732 
	C30.961105,357.279480 44.397007,363.222107 55.757168,354.764252 
	C56.463089,354.067566 57.188545,353.389465 57.871864,352.671265 
	C63.547237,346.706451 61.642162,330.981506 53.724186,328.213409 
M466.626862,361.886719 
	C463.868805,360.120056 461.110779,358.353424 457.754028,356.203308 
	C462.168365,353.427338 466.232727,350.975708 470.187561,348.358612 
	C475.399506,344.909576 480.658691,341.506714 485.637329,337.740021 
	C488.529297,335.552094 488.859711,331.995972 486.793396,329.288757 
	C485.295044,327.325684 482.315857,325.083252 480.226898,325.289825 
	C476.495117,325.658905 472.715515,327.385559 469.353638,329.258545 
	C462.947021,332.827789 456.820221,336.899292 449.999084,341.120087 
	C449.999084,330.842926 450.072388,321.523682 449.970673,312.206299 
	C449.912750,306.903625 446.746063,303.923340 441.638702,304.000366 
	C435.852356,304.087616 433.140472,307.180176 433.032135,314.315002 
	C432.901337,322.930237 433.001190,331.548981 433.001190,340.989319 
	C424.900299,335.904327 417.417755,331.188049 409.914642,326.504730 
	C405.136688,323.522400 399.274658,324.532623 396.843140,328.709106 
	C394.482544,332.763763 396.307404,338.165375 401.007812,340.990173 
	C402.843719,342.093506 404.725342,343.122284 406.542297,344.255310 
	C412.734772,348.116974 418.907715,352.009949 425.697784,356.273804 
	C416.717590,361.897522 408.456055,366.980530 400.293823,372.218292 
	C395.724121,375.150635 394.547821,380.411194 397.275085,384.546875 
	C399.781006,388.346893 404.878571,388.869446 409.560211,385.962402 
	C417.066132,381.301605 424.630463,376.734833 433.000000,371.621338 
	C433.000000,380.474823 432.994690,388.553894 433.001556,396.632965 
	C433.008270,404.566925 436.253815,409.021057 441.994080,408.996765 
	C447.295990,408.974335 449.997864,404.931824 449.999634,397.011749 
	C450.001434,388.786865 450.000000,380.561951 450.000000,371.683075 
	C451.894287,372.561615 452.982269,372.932892 453.930237,373.527405 
	C460.352112,377.554810 466.740570,381.635437 473.147461,385.686829 
	C478.693115,389.193604 483.835876,388.533966 486.506836,383.991730 
	C489.413574,379.048553 487.784027,374.892334 481.921387,371.405762 
	C476.965393,368.458405 472.182404,365.220184 466.626862,361.886719 
M131.635773,335.122803 
	C125.900650,338.699860 120.106682,342.187195 114.455772,345.892700 
	C111.716827,347.688721 108.957939,349.621155 106.724907,351.980896 
	C103.749458,355.125244 104.379219,359.316742 106.897087,361.939758 
	C109.399750,364.546967 113.265251,366.248138 117.255089,363.883453 
	C119.382172,362.622772 121.447304,361.257965 123.551033,359.957336 
	C129.809219,356.088287 136.072678,352.227692 143.000046,347.952820 
	C143.000046,358.053040 142.982849,367.321014 143.006378,376.588898 
	C143.020889,382.306580 146.155136,385.955902 150.985184,385.969940 
	C155.773483,385.983856 158.978607,382.278046 158.993393,376.618530 
	C159.017609,367.343536 158.999939,358.068390 158.999939,348.095886 
	C160.682373,349.065857 161.792984,349.666626 162.864594,350.330383 
	C170.149689,354.842529 177.296951,359.597046 184.749146,363.812958 
	C190.215256,366.905304 197.520081,362.577454 196.757187,356.560669 
	C196.392746,353.686371 194.112961,350.353394 191.705078,348.580200 
	C186.019852,344.393616 179.722931,341.041412 173.705536,337.300018 
	C171.693604,336.049072 169.779160,334.641296 167.415695,333.029358 
	C168.830307,332.000977 169.566971,331.398376 170.366104,330.894897 
	C177.756058,326.239227 185.198471,321.665222 192.538956,316.933075 
	C197.005905,314.053375 198.204300,309.534882 195.813828,305.604797 
	C193.093155,301.131866 188.314774,300.109985 183.485641,303.038818 
	C180.668549,304.747375 177.939041,306.600159 175.126465,308.316467 
	C169.974274,311.460632 164.789703,314.551727 159.000000,318.037384 
	C159.000000,310.741394 159.000000,304.287842 159.000000,297.834290 
	C159.000000,283.753387 157.275330,280.011505 150.869781,280.194885 
	C144.500702,280.377228 143.000015,283.695251 143.000000,297.594971 
	C143.000000,304.153748 143.000000,310.712555 143.000000,317.829437 
	C141.435150,317.048340 140.536072,316.684357 139.723526,316.180725 
	C132.581314,311.754150 125.484612,307.253418 118.312225,302.876587 
	C113.773651,300.107025 109.029091,301.175598 106.300072,305.394348 
	C103.787003,309.279266 104.910797,313.951721 109.281006,316.775635 
	C116.615936,321.515259 124.007301,326.170685 131.455658,330.729614 
	C133.460892,331.956970 135.160461,332.837616 131.635773,335.122803 
M278.160126,414.619629 
	C278.344025,413.773468 278.239929,412.503693 278.759094,412.150726 
	C281.862091,410.041382 285.254791,408.342133 288.271057,406.125305 
	C292.270569,403.185791 293.079041,398.357025 290.645905,394.263336 
	C288.646210,390.898926 284.016113,389.928009 279.593292,392.201538 
	C276.178986,393.956635 272.921387,396.016510 269.000000,398.284485 
	C269.000000,395.804047 269.000732,394.015076 268.999817,392.226135 
	C268.998779,390.227814 269.125702,388.219208 268.968384,386.233185 
	C268.602203,381.610291 264.438812,377.802338 260.194733,378.064423 
	C255.866974,378.331696 253.092621,381.536316 253.012375,386.487976 
	C252.951721,390.230499 253.000351,393.974792 253.000351,398.631989 
	C248.815231,396.084534 245.599075,393.895905 242.176468,392.100983 
	C237.719772,389.763702 233.221390,391.036011 231.018539,394.930664 
	C228.629410,399.154602 229.710800,403.610870 233.866974,406.413483 
	C237.390778,408.789703 240.956390,411.103851 244.658859,413.548035 
	C243.045059,414.573059 241.448044,415.587219 239.851242,416.601685 
	C238.057236,417.741425 236.232971,418.836670 234.475418,420.030121 
	C229.733124,423.250305 228.449585,428.458893 231.314682,432.671722 
	C233.847626,436.396179 238.954880,436.882507 243.570435,433.948029 
	C246.552490,432.052063 249.627655,430.302521 253.000046,428.284546 
	C253.000046,432.439728 252.982361,436.090363 253.004059,439.740784 
	C253.039459,445.697662 255.798050,448.855316 260.938995,448.864258 
	C265.386108,448.871979 268.891602,444.843811 268.988037,439.514465 
	C269.049774,436.104980 268.999603,432.693451 268.999603,428.535400 
	C272.991364,430.919403 276.121704,432.923218 279.377472,434.696899 
	C282.862091,436.595245 288.696564,435.516907 290.601166,432.812775 
	C293.148071,429.196716 292.295654,423.876984 288.333069,420.934753 
	C285.328735,418.704041 281.986877,416.927948 278.160126,414.619629 
z"/>
<path fill="#D1E7F8" opacity="1.000000" stroke="none" 
	d="
M513.000000,96.000000 
	C513.000000,129.687561 513.000000,163.375122 512.531921,197.504578 
	C354.708099,197.940735 197.352325,197.936218 39.996574,197.917709 
	C37.672443,197.917435 35.348335,197.743195 33.019760,197.217163 
	C33.009911,165.469620 32.865311,134.154175 33.068775,102.840965 
	C33.148331,90.597282 38.511440,80.373535 48.746315,73.872780 
	C55.117710,69.825935 62.841297,67.907997 70.428970,65.015213 
	C189.781387,64.991188 308.662903,64.945595 427.544312,65.026955 
	C444.980438,65.038887 462.425476,65.413391 479.848541,66.083633 
	C489.827759,66.467514 498.018036,71.490623 503.918457,79.237961 
	C507.722931,84.233307 510.024750,90.373116 513.000000,96.000000 
M445.184723,153.880646 
	C439.423279,152.380493 435.018921,153.905167 432.325958,158.332001 
	C430.022186,162.119019 430.508118,167.458160 433.458771,170.779556 
	C436.565460,174.276596 441.070343,175.068817 446.696289,172.941788 
	C454.514709,167.537415 454.172638,159.436783 445.184723,153.880646 
M262.876984,117.048332 
	C268.515015,117.079262 274.154236,117.196098 279.790710,117.116325 
	C285.153961,117.040436 288.512115,114.241852 288.846405,109.840874 
	C289.156525,105.757896 285.764557,101.651390 280.776245,101.426964 
	C274.200439,101.131126 267.585510,101.704948 260.062988,101.740204 
	C251.779984,101.733688 243.494965,101.614052 235.214691,101.761192 
	C229.867706,101.856224 226.798553,104.931938 226.904984,109.565262 
	C227.005081,113.922569 230.139008,116.969604 235.120560,117.017433 
	C244.061005,117.103271 253.003860,116.939888 262.876984,117.048332 
M485.451935,173.957733 
	C492.265472,170.636917 494.672943,165.509903 492.178589,159.632492 
	C489.859253,154.167572 484.079895,151.748016 478.568115,153.934433 
	C473.759155,155.842056 471.045502,161.003906 472.168396,166.107849 
	C473.371185,171.575073 477.760925,174.361328 485.451935,173.957733 
z"/>
<path fill="#FFFFFF" opacity="1.000000" stroke="none" 
	d="
M513.000000,95.531342 
	C510.024750,90.373116 507.722931,84.233307 503.918457,79.237961 
	C498.018036,71.490623 489.827759,66.467514 479.848541,66.083633 
	C462.425476,65.413391 444.980438,65.038887 427.544312,65.026955 
	C308.662903,64.945595 189.781387,64.991188 69.965118,65.002441 
	C57.477329,65.338959 45.912998,65.454208 34.374748,66.063377 
	C24.265806,66.597084 15.984282,71.452957 10.039833,79.355858 
	C6.285786,84.346710 3.964141,90.414993 1.000000,96.000000 
	C1.000000,64.353065 1.000000,32.706135 1.000004,1.059957 
	C171.666672,1.060713 342.333344,1.060713 513.000000,1.060713 
	C513.000000,32.435177 513.000000,63.748932 513.000000,95.531342 
z"/>
<path fill="#79BAEB" opacity="1.000000" stroke="none" 
	d="
M33.024216,197.650146 
	C35.348335,197.743195 37.672443,197.917435 39.996574,197.917709 
	C197.352325,197.936218 354.708099,197.940735 512.531921,197.973236 
	C513.000000,203.354935 513.000000,208.709854 512.531372,214.542511 
	C408.732330,215.014481 305.401825,215.007568 202.071350,215.014465 
	C200.580887,215.014572 199.049347,214.998703 197.607407,215.313156 
	C192.646271,216.395065 190.554367,219.115646 190.982925,223.663727 
	C191.440170,228.516205 195.065018,230.945694 202.230392,230.954956 
	C228.562973,230.988983 254.895615,230.974747 281.228241,230.967560 
	C356.725830,230.946945 432.223419,230.920898 507.721008,230.896988 
	C501.614716,241.844833 492.417786,248.546890 479.928802,249.818527 
	C471.365051,250.690445 462.697540,250.806427 454.076202,250.810410 
	C328.832123,250.868286 203.588028,250.849609 78.343925,250.852524 
	C74.514755,250.852615 70.685577,250.888290 66.310036,250.471008 
	C64.903191,249.685593 64.065933,249.256226 63.178688,248.999817 
	C52.853786,246.015747 43.883316,241.227005 39.442982,230.972015 
	C80.724625,230.966522 121.535934,230.980057 162.347168,230.928146 
	C164.636932,230.925232 167.407028,231.084091 169.099472,229.922836 
	C171.470749,228.295807 174.145630,225.726212 174.675385,223.146057 
	C175.358841,219.817245 172.976089,216.779938 169.332596,215.745010 
	C167.457291,215.212341 165.424179,215.039444 163.461990,215.037094 
	C119.985657,214.984924 76.509277,214.979385 33.020844,214.501007 
	C33.008301,208.712967 33.007812,203.388901 33.002819,197.960815 
	C32.998310,197.856781 33.024216,197.650146 33.024216,197.650146 
z"/>
<path fill="#3F9BE2" opacity="1.000000" stroke="none" 
	d="
M507.904724,230.590424 
	C432.223419,230.920898 356.725830,230.946945 281.228241,230.967560 
	C254.895615,230.974747 228.562973,230.988983 202.230392,230.954956 
	C195.065018,230.945694 191.440170,228.516205 190.982925,223.663727 
	C190.554367,219.115646 192.646271,216.395065 197.607407,215.313156 
	C199.049347,214.998703 200.580887,215.014572 202.071350,215.014465 
	C305.401825,215.007568 408.732330,215.014481 512.531372,215.010117 
	C513.000000,216.066666 513.000000,217.133347 513.000000,218.600006 
	C511.362823,222.761292 509.725647,226.522583 507.904724,230.590424 
z"/>
<path fill="#B3D8F4" opacity="1.000000" stroke="none" 
	d="
M1.000000,96.468658 
	C3.964141,90.414993 6.285786,84.346710 10.039833,79.355858 
	C15.984282,71.452957 24.265806,66.597084 34.374748,66.063377 
	C45.912998,65.454208 57.477329,65.338959 69.494171,65.021835 
	C62.841297,67.907997 55.117710,69.825935 48.746315,73.872780 
	C38.511440,80.373535 33.148331,90.597282 33.068775,102.840965 
	C32.865311,134.154175 33.009911,165.469620 33.019760,197.217163 
	C33.024216,197.650146 32.998310,197.856781 32.535858,197.904114 
	C21.715601,197.967636 11.357800,197.983810 1.000000,198.000000 
	C1.000000,164.312439 1.000000,130.624878 1.000000,96.468658 
z"/>
<path fill="#3D9AE2" opacity="1.000000" stroke="none" 
	d="
M33.032902,214.964981 
	C76.509277,214.979385 119.985657,214.984924 163.461990,215.037094 
	C165.424179,215.039444 167.457291,215.212341 169.332596,215.745010 
	C172.976089,216.779938 175.358841,219.817245 174.675385,223.146057 
	C174.145630,225.726212 171.470749,228.295807 169.099472,229.922836 
	C167.407028,231.084091 164.636932,230.925232 162.347168,230.928146 
	C121.535934,230.980057 80.724625,230.966522 38.977402,230.974060 
	C27.438055,230.971619 16.834635,230.962219 6.231217,230.952820 
	C4.797482,227.328094 3.363747,223.703400 1.930307,219.359558 
	C1.620402,218.093613 1.310202,217.546799 1.000001,217.000000 
	C1.000000,216.555557 1.000000,216.111099 1.468649,215.336517 
	C12.302500,214.992584 22.667702,214.978775 33.032902,214.964981 
z"/>
<path fill="#5AAAE7" opacity="1.000000" stroke="none" 
	d="
M33.020844,214.501007 
	C22.667702,214.978775 12.302500,214.992584 1.468649,215.003204 
	C1.000000,209.645065 1.000000,204.290146 1.000000,198.467606 
	C11.357800,197.983810 21.715601,197.967636 32.540367,198.008148 
	C33.007812,203.388901 33.008301,208.712967 33.020844,214.501007 
z"/>
<path fill="#5AAAE7" opacity="1.000000" stroke="none" 
	d="
M1.000001,217.333328 
	C1.310202,217.546799 1.620402,218.093613 1.883643,218.975098 
	C1.836683,219.309799 1.381698,219.253876 1.190849,219.126938 
	C1.000000,218.555557 1.000000,218.111099 1.000001,217.333328 
z"/>
<path fill="#78B9EB" opacity="1.000000" stroke="none" 
	d="
M466.974854,361.998718 
	C472.182404,365.220184 476.965393,368.458405 481.921387,371.405762 
	C487.784027,374.892334 489.413574,379.048553 486.506836,383.991730 
	C483.835876,388.533966 478.693115,389.193604 473.147461,385.686829 
	C466.740570,381.635437 460.352112,377.554810 453.930237,373.527405 
	C452.982269,372.932892 451.894287,372.561615 450.000000,371.683075 
	C450.000000,380.561951 450.001434,388.786865 449.999634,397.011749 
	C449.997864,404.931824 447.295990,408.974335 441.994080,408.996765 
	C436.253815,409.021057 433.008270,404.566925 433.001556,396.632965 
	C432.994690,388.553894 433.000000,380.474823 433.000000,371.621338 
	C424.630463,376.734833 417.066132,381.301605 409.560211,385.962402 
	C404.878571,388.869446 399.781006,388.346893 397.275085,384.546875 
	C394.547821,380.411194 395.724121,375.150635 400.293823,372.218292 
	C408.456055,366.980530 416.717590,361.897522 425.697784,356.273804 
	C418.907715,352.009949 412.734772,348.116974 406.542297,344.255310 
	C404.725342,343.122284 402.843719,342.093506 401.007812,340.990173 
	C396.307404,338.165375 394.482544,332.763763 396.843140,328.709106 
	C399.274658,324.532623 405.136688,323.522400 409.914642,326.504730 
	C417.417755,331.188049 424.900299,335.904327 433.001190,340.989319 
	C433.001190,331.548981 432.901337,322.930237 433.032135,314.315002 
	C433.140472,307.180176 435.852356,304.087616 441.638702,304.000366 
	C446.746063,303.923340 449.912750,306.903625 449.970673,312.206299 
	C450.072388,321.523682 449.999084,330.842926 449.999084,341.120087 
	C456.820221,336.899292 462.947021,332.827789 469.353638,329.258545 
	C472.715515,327.385559 476.495117,325.658905 480.226898,325.289825 
	C482.315857,325.083252 485.295044,327.325684 486.793396,329.288757 
	C488.859711,331.995972 488.529297,335.552094 485.637329,337.740021 
	C480.658691,341.506714 475.399506,344.909576 470.187561,348.358612 
	C466.232727,350.975708 462.168365,353.427338 457.754028,356.203308 
	C461.110779,358.353424 463.868805,360.120056 466.974854,361.998718 
z"/>
<path fill="#78B9EB" opacity="1.000000" stroke="none" 
	d="
M131.980621,335.006836 
	C135.160461,332.837616 133.460892,331.956970 131.455658,330.729614 
	C124.007301,326.170685 116.615936,321.515259 109.281006,316.775635 
	C104.910797,313.951721 103.787003,309.279266 106.300072,305.394348 
	C109.029091,301.175598 113.773651,300.107025 118.312225,302.876587 
	C125.484612,307.253418 132.581314,311.754150 139.723526,316.180725 
	C140.536072,316.684357 141.435150,317.048340 143.000000,317.829437 
	C143.000000,310.712555 143.000000,304.153748 143.000000,297.594971 
	C143.000015,283.695251 144.500702,280.377228 150.869781,280.194885 
	C157.275330,280.011505 159.000000,283.753387 159.000000,297.834290 
	C159.000000,304.287842 159.000000,310.741394 159.000000,318.037384 
	C164.789703,314.551727 169.974274,311.460632 175.126465,308.316467 
	C177.939041,306.600159 180.668549,304.747375 183.485641,303.038818 
	C188.314774,300.109985 193.093155,301.131866 195.813828,305.604797 
	C198.204300,309.534882 197.005905,314.053375 192.538956,316.933075 
	C185.198471,321.665222 177.756058,326.239227 170.366104,330.894897 
	C169.566971,331.398376 168.830307,332.000977 167.415695,333.029358 
	C169.779160,334.641296 171.693604,336.049072 173.705536,337.300018 
	C179.722931,341.041412 186.019852,344.393616 191.705078,348.580200 
	C194.112961,350.353394 196.392746,353.686371 196.757187,356.560669 
	C197.520081,362.577454 190.215256,366.905304 184.749146,363.812958 
	C177.296951,359.597046 170.149689,354.842529 162.864594,350.330383 
	C161.792984,349.666626 160.682373,349.065857 158.999939,348.095886 
	C158.999939,358.068390 159.017609,367.343536 158.993393,376.618530 
	C158.978607,382.278046 155.773483,385.983856 150.985184,385.969940 
	C146.155136,385.955902 143.020889,382.306580 143.006378,376.588898 
	C142.982849,367.321014 143.000046,358.053040 143.000046,347.952820 
	C136.072678,352.227692 129.809219,356.088287 123.551033,359.957336 
	C121.447304,361.257965 119.382172,362.622772 117.255089,363.883453 
	C113.265251,366.248138 109.399750,364.546967 106.897087,361.939758 
	C104.379219,359.316742 103.749458,355.125244 106.724907,351.980896 
	C108.957939,349.621155 111.716827,347.688721 114.455772,345.892700 
	C120.106682,342.187195 125.900650,338.699860 131.980621,335.006836 
z"/>
<path fill="#3D9AE2" opacity="1.000000" stroke="none" 
	d="
M278.477661,414.784576 
	C281.986877,416.927948 285.328735,418.704041 288.333069,420.934753 
	C292.295654,423.876984 293.148071,429.196716 290.601166,432.812775 
	C288.696564,435.516907 282.862091,436.595245 279.377472,434.696899 
	C276.121704,432.923218 272.991364,430.919403 268.999603,428.535400 
	C268.999603,432.693451 269.049774,436.104980 268.988037,439.514465 
	C268.891602,444.843811 265.386108,448.871979 260.938995,448.864258 
	C255.798050,448.855316 253.039459,445.697662 253.004059,439.740784 
	C252.982361,436.090363 253.000046,432.439728 253.000046,428.284546 
	C249.627655,430.302521 246.552490,432.052063 243.570435,433.948029 
	C238.954880,436.882507 233.847626,436.396179 231.314682,432.671722 
	C228.449585,428.458893 229.733124,423.250305 234.475418,420.030121 
	C236.232971,418.836670 238.057236,417.741425 239.851242,416.601685 
	C241.448044,415.587219 243.045059,414.573059 244.658859,413.548035 
	C240.956390,411.103851 237.390778,408.789703 233.866974,406.413483 
	C229.710800,403.610870 228.629410,399.154602 231.018539,394.930664 
	C233.221390,391.036011 237.719772,389.763702 242.176468,392.100983 
	C245.599075,393.895905 248.815231,396.084534 253.000351,398.631989 
	C253.000351,393.974792 252.951721,390.230499 253.012375,386.487976 
	C253.092621,381.536316 255.866974,378.331696 260.194733,378.064423 
	C264.438812,377.802338 268.602203,381.610291 268.968384,386.233185 
	C269.125702,388.219208 268.998779,390.227814 268.999817,392.226135 
	C269.000732,394.015076 269.000000,395.804047 269.000000,398.284485 
	C272.921387,396.016510 276.178986,393.956635 279.593292,392.201538 
	C284.016113,389.928009 288.646210,390.898926 290.645905,394.263336 
	C293.079041,398.357025 292.270569,403.185791 288.271057,406.125305 
	C285.254791,408.342133 281.862091,410.041382 278.759094,412.150726 
	C278.239929,412.503693 278.344025,413.773468 278.477661,414.784576 
z"/>
<path fill="#5AAAE7" opacity="1.000000" stroke="none" 
	d="
M6.280316,231.287048 
	C16.834635,230.962219 27.438055,230.971619 38.507050,230.978989 
	C43.883316,241.227005 52.853786,246.015747 63.178688,248.999817 
	C64.065933,249.256226 64.903191,249.685593 65.845421,250.377380 
	C57.595276,250.761368 49.263378,250.802597 40.323895,250.616165 
	C39.478165,250.176971 39.199860,250.066986 38.881397,250.058578 
	C24.397451,250.327545 14.033944,243.321686 6.280316,231.287048 
z"/>
<path fill="#1E81CE" opacity="1.000000" stroke="none" 
	d="
M55.133526,355.034943 
	C44.397007,363.222107 30.961105,357.279480 28.392714,344.918732 
	C26.936485,337.910431 32.619713,325.564484 42.934891,326.088104 
	C46.557949,326.272034 50.129250,327.475464 53.767715,328.872345 
	C53.205292,330.504883 52.666176,331.528320 51.982811,332.444183 
	C46.465347,339.838562 47.786797,349.395233 55.133526,355.034943 
z"/>
<path fill="#1E81CE" opacity="1.000000" stroke="none" 
	d="
M333.086517,320.146057 
	C326.892578,324.783752 320.275146,323.969757 314.239410,320.493713 
	C308.866821,317.399628 306.606110,311.307312 307.353699,305.658783 
	C309.158234,292.023895 322.034790,285.639679 333.625061,293.787140 
	C329.605438,297.311401 327.096039,301.352509 328.133240,306.217285 
	C329.151917,310.995026 331.385864,315.513702 333.086517,320.146057 
z"/>
<path fill="#3D9AE2" opacity="1.000000" stroke="none" 
	d="
M333.440063,320.096191 
	C331.385864,315.513702 329.151917,310.995026 328.133240,306.217285 
	C327.096039,301.352509 329.605438,297.311401 333.808472,294.108704 
	C343.050140,301.568878 342.898438,313.436096 333.440063,320.096191 
z"/>
<path fill="#3D9AE2" opacity="1.000000" stroke="none" 
	d="
M55.445347,354.899597 
	C47.786797,349.395233 46.465347,339.838562 51.982811,332.444183 
	C52.666176,331.528320 53.205292,330.504883 53.950226,329.201508 
	C61.642162,330.981506 63.547237,346.706451 57.871864,352.671265 
	C57.188545,353.389465 56.463089,354.067566 55.445347,354.899597 
z"/>
<path fill="#79BAEB" opacity="1.000000" stroke="none" 
	d="
M39.000671,250.274536 
	C39.199860,250.066986 39.478165,250.176971 39.858150,250.565918 
	C39.999989,250.743347 39.510036,250.790817 39.510036,250.790817 
	C39.510036,250.790817 39.119942,250.490509 39.000671,250.274536 
z"/>
<path fill="#1E71B1" opacity="1.000000" stroke="none" 
	d="
M260.987396,101.904892 
	C267.585510,101.704948 274.200439,101.131126 280.776245,101.426964 
	C285.764557,101.651390 289.156525,105.757896 288.846405,109.840874 
	C288.512115,114.241852 285.153961,117.040436 279.790710,117.116325 
	C274.154236,117.196098 268.515015,117.079262 262.201538,116.704536 
	C256.652374,112.810211 255.487671,108.960129 258.219635,105.321915 
	C259.099182,104.150597 260.062439,103.042122 260.987396,101.904892 
z"/>
<path fill="#175D93" opacity="1.000000" stroke="none" 
	d="
M260.525208,101.822548 
	C260.062439,103.042122 259.099182,104.150597 258.219635,105.321915 
	C255.487671,108.960129 256.652374,112.810211 261.735901,116.620689 
	C253.003860,116.939888 244.061005,117.103271 235.120560,117.017433 
	C230.139008,116.969604 227.005081,113.922569 226.904984,109.565262 
	C226.798553,104.931938 229.867706,101.856224 235.214691,101.761192 
	C243.494965,101.614052 251.779984,101.733688 260.525208,101.822548 
z"/>
<path fill="#FE133E" opacity="1.000000" stroke="none" 
	d="
M485.084961,174.015533 
	C477.760925,174.361328 473.371185,171.575073 472.168396,166.107849 
	C471.045502,161.003906 473.759155,155.842056 478.568115,153.934433 
	C484.079895,151.748016 489.859253,154.167572 492.178589,159.632492 
	C494.672943,165.509903 492.265472,170.636917 485.084961,174.015533 
z"/>
<path fill="#70C92F" opacity="1.000000" stroke="none" 
	d="
M445.988586,172.983002 
	C441.070343,175.068817 436.565460,174.276596 433.458771,170.779556 
	C430.508118,167.458160 430.022186,162.119019 432.325958,158.332001 
	C435.018921,153.905167 439.423279,152.380493 445.398743,154.321518 
	C439.401672,161.841141 439.465485,164.933411 445.988586,172.983002 
z"/>
<path fill="#91DC5B" opacity="1.000000" stroke="none" 
	d="
M446.342438,172.962402 
	C439.465485,164.933411 439.401672,161.841141 445.758240,154.468353 
	C454.172638,159.436783 454.514709,167.537415 446.342438,172.962402 
z"/>
</svg>