<svg version="1.1" id="Layer_1" xmlns="http://www.w3.org/2000/svg" xmlns:xlink="http://www.w3.org/1999/xlink" x="0px" y="0px"
	 width="100%" viewBox="0 0 512 512" enable-background="new 0 0 512 512" xml:space="preserve">
<path fill="#010101" opacity="1.000000" stroke="none" 
	d="
M513.000000,179.000000 
	C513.000000,290.639526 513.000000,401.779053 513.000000,512.959290 
	C342.402130,512.959290 171.804245,512.959290 1.103185,512.959290 
	C1.103185,342.443848 1.103185,171.887589 1.103185,1.165670 
	C171.666534,1.165670 342.333252,1.165670 513.000000,1.165670 
	C513.000000,60.195713 513.000000,119.347855 513.000000,179.000000 
M237.930374,234.427124 
	C269.952545,204.887207 307.505371,194.360306 349.669647,204.667267 
	C436.952942,226.003464 470.116608,331.138580 411.549133,399.383179 
	C409.222321,402.094482 408.596924,404.404266 409.498352,407.841278 
	C411.817352,416.683044 413.974457,425.586182 415.672852,434.563812 
	C416.522888,439.057159 417.128662,443.937531 416.291382,448.347931 
	C413.297791,464.116913 393.694305,475.798950 376.786774,472.576752 
	C368.915863,471.076721 362.810211,466.868591 357.988159,460.639618 
	C353.132477,463.865875 348.800385,466.969757 344.254913,469.721130 
	C331.794861,477.263153 317.165283,471.280396 313.717743,457.095062 
	C312.978577,454.053772 311.506439,452.698334 308.816376,451.702789 
	C296.942047,447.308350 285.355682,447.772034 274.004974,453.414978 
	C268.154144,456.323730 262.319031,459.264160 255.894653,462.481873 
	C256.868896,450.287476 257.632172,438.991821 258.761963,427.732941 
	C259.071106,424.652527 258.324432,422.925476 255.721054,421.271729 
	C251.658829,418.691223 247.748444,415.808960 244.064804,412.708679 
	C237.096695,406.844177 230.335281,400.734070 223.495560,394.732666 
	C206.262192,416.941040 182.392471,432.211517 153.000275,438.669159 
	C153.000275,452.100830 152.991592,465.093689 153.003357,478.086548 
	C153.011017,486.544830 155.492966,488.996979 164.061432,488.997314 
	C268.719299,489.001160 373.377167,489.001373 478.035034,488.996918 
	C486.520966,488.996552 488.996521,486.508759 488.996918,477.982330 
	C489.001434,381.823730 489.000793,285.665161 488.989868,189.506561 
	C488.989716,188.071014 488.841248,186.635498 488.767334,185.296753 
	C376.679443,185.296753 264.949615,185.296753 153.286407,185.296753 
	C153.286407,191.523651 153.286407,197.448776 153.286407,203.429672 
	C182.725906,209.919983 206.337860,225.245590 224.710236,248.774475 
	C229.132797,243.960007 233.281067,239.444168 237.930374,234.427124 
M166.708206,382.253052 
	C192.305481,365.085388 204.040588,341.266907 200.073517,310.545776 
	C194.898972,270.474121 156.179733,242.936096 115.865211,250.147278 
	C76.744171,257.144989 50.093632,296.634674 58.407677,335.285553 
	C68.958054,384.332794 121.882172,407.620087 166.708206,382.253052 
M370.500000,168.998489 
	C409.923218,168.998489 449.346436,168.998489 488.998535,168.998489 
	C488.998535,156.580750 489.000519,144.769577 488.997925,132.958405 
	C488.995758,123.114754 486.871918,121.002113 476.972687,121.002037 
	C374.151459,121.001198 271.330231,121.001526 168.509018,121.001526 
	C153.814896,121.001526 153.001511,121.812836 153.001511,136.469330 
	C153.001511,147.233856 153.001511,157.998367 153.001511,168.998489 
	C225.563156,168.998489 297.531586,168.998489 370.500000,168.998489 
M265.108948,275.631775 
	C239.072220,307.688751 249.221466,348.734833 263.714020,362.833527 
	C263.878143,352.983063 266.535675,344.011414 271.994080,335.939575 
	C276.600525,329.127625 282.307800,323.751831 290.696228,322.002594 
	C301.584808,319.731934 310.776459,322.854767 318.234894,330.967651 
	C320.318085,333.233643 322.058716,333.849487 325.024567,332.366608 
	C330.216827,329.770447 335.650513,327.642487 341.039948,325.458801 
	C349.484894,322.037079 358.259918,320.150421 367.375275,321.320557 
	C377.210693,322.583099 384.985596,327.596497 390.992279,336.552673 
	C394.010040,324.308136 393.659454,313.107819 390.390472,302.108002 
	C382.443481,275.367218 364.968323,257.705719 337.878174,251.206985 
	C309.298340,244.350861 285.049469,253.130127 265.108948,275.631775 
M350.134155,424.297485 
	C348.472961,408.967346 346.811768,393.637207 345.111145,377.943237 
	C350.559540,377.327454 355.583344,376.759674 360.911133,376.157532 
	C363.288055,397.284424 365.778900,417.923096 367.883575,438.601074 
	C369.599487,455.459869 376.141479,459.844055 392.034729,454.184906 
	C392.504272,454.017670 393.003723,453.928284 393.462952,453.738892 
	C399.114624,451.408203 402.019989,446.445007 400.669495,440.521790 
	C393.794861,410.370361 386.880402,380.227325 379.787567,350.126709 
	C377.860657,341.949249 370.886047,336.562592 362.503693,337.168030 
	C356.965302,337.568054 351.303925,338.869446 346.107025,340.844574 
	C335.705811,344.797607 325.590424,349.501434 315.347229,353.872314 
	C310.371918,355.995361 305.374603,358.066803 300.141266,360.264923 
	C297.952484,355.133820 295.965881,350.476685 293.928406,345.700287 
	C297.903137,343.934326 301.371826,342.393158 304.949677,340.803528 
	C299.662262,335.937286 293.703552,335.806610 288.905273,340.531860 
	C283.485535,345.869141 280.537598,352.446930 279.929016,360.050690 
	C278.693542,375.486359 277.425903,390.919525 276.227386,406.358032 
	C275.471313,416.097168 274.816315,425.844086 274.090546,435.941193 
	C287.246033,431.616516 299.987305,431.841095 313.188934,436.027435 
	C313.188934,410.744110 313.188934,386.003571 313.188934,361.361023 
	C318.704224,361.361023 323.765686,361.361023 328.997742,361.361023 
	C328.997742,363.540405 328.997742,365.361725 328.997742,367.183044 
	C328.997894,395.002441 328.953003,422.822083 329.098541,450.640717 
	C329.108307,452.511963 330.081421,455.220978 331.471130,456.002167 
	C332.826263,456.763977 335.576904,456.048798 337.213654,455.109070 
	C341.533905,452.628693 345.714661,449.847015 349.662872,446.810730 
	C350.939941,445.828644 352.062469,443.645660 351.981720,442.077667 
	C351.691040,436.436401 350.856201,430.823120 350.134155,424.297485 
M107.770653,219.186905 
	C72.937393,227.456436 48.243088,247.914200 33.245220,280.390594 
	C39.039623,281.112518 44.239552,281.760376 49.623314,282.431122 
	C72.320717,238.075134 119.625763,226.073273 154.035156,236.636856 
	C190.861618,247.942474 216.551575,281.497345 216.977188,319.533783 
	C217.412582,358.444641 192.668396,393.048431 155.866699,404.791687 
	C137.875519,410.532562 119.764236,410.569336 101.845238,404.623901 
	C78.088310,396.741425 60.890438,381.092041 49.917004,359.526337 
	C44.175102,360.242737 38.989960,360.889679 33.557533,361.567474 
	C33.998634,362.679382 34.425537,363.907166 34.961742,365.085205 
	C53.245872,405.253998 96.491585,429.184967 141.648605,424.133820 
	C201.872681,417.397339 244.264999,357.525818 230.551636,298.574310 
	C217.565704,242.749893 165.800491,208.993668 107.770653,219.186905 
M288.500000,25.001150 
	C257.371552,25.001205 226.243088,24.989199 195.114655,25.010288 
	C187.860809,25.015203 185.046097,27.765423 185.012497,34.856541 
	C184.967545,44.344688 184.960846,53.833447 185.015411,63.321495 
	C185.054565,70.129623 187.918991,72.982094 194.799423,72.985718 
	C241.575394,73.010315 288.351349,73.010056 335.127319,72.986389 
	C342.214325,72.982803 344.961945,70.129349 344.989960,62.888691 
	C345.026031,53.566933 345.032013,44.244766 344.987823,34.923073 
	C344.954102,27.807180 342.138733,25.025917 334.944244,25.010912 
	C319.796234,24.979315 304.648102,25.001207 288.500000,25.001150 
M423.399567,303.135223 
	C423.079712,301.504913 422.813263,299.862000 422.432251,298.246124 
	C409.770599,244.548630 360.607971,210.530441 305.759216,218.194153 
	C276.820160,222.237640 253.828979,236.862778 236.713730,260.575439 
	C235.833710,261.794678 234.784042,263.804749 235.211975,264.900330 
	C237.329269,270.320953 239.917252,275.557709 242.520126,281.255219 
	C243.472565,279.618164 244.143341,278.480133 244.800186,277.334137 
	C263.489990,244.726028 301.389069,227.215073 337.351746,234.573044 
	C394.595795,246.285187 424.665131,305.532043 400.335327,358.640289 
	C399.792603,359.824921 398.933716,361.231140 399.160919,362.342010 
	C400.550568,369.135284 402.211517,375.873047 403.998016,383.558380 
	C421.652130,359.020050 428.026093,332.823822 423.399567,303.135223 
M393.000000,62.500000 
	C393.000000,76.591064 393.000000,90.682129 393.000000,104.632019 
	C402.639618,104.632019 411.653473,104.632019 422.281067,104.632019 
	C415.378143,98.058830 409.495148,92.456871 403.720825,86.958405 
	C407.514740,83.069542 411.067993,79.427353 414.894257,75.505348 
	C422.646667,83.274841 430.778961,90.501976 437.754333,98.712051 
	C443.191528,105.111725 449.316223,105.987854 456.724731,104.564056 
	C456.724731,78.091026 456.724731,51.698391 456.724731,25.293949 
	C435.387756,25.293949 414.327454,25.293949 393.000000,25.293949 
	C393.000000,37.557293 393.000000,49.528645 393.000000,62.500000 
M265.500000,105.000244 
	C287.803650,105.000244 310.107330,105.000267 332.410980,105.000198 
	C333.576111,105.000198 334.741974,105.027054 335.906219,104.994347 
	C341.397156,104.840096 344.888916,101.796104 344.964508,97.117989 
	C345.040405,92.419945 341.546661,89.199722 336.147980,89.006012 
	C335.316803,88.976181 334.483673,88.999855 333.651459,88.999847 
	C287.878998,88.999748 242.106552,88.998848 196.334106,89.003860 
	C194.837357,89.004028 193.294083,88.840294 191.852631,89.139320 
	C187.585678,90.024475 185.048706,92.702469 185.088669,97.125214 
	C185.126511,101.314293 187.610352,103.886108 191.613922,104.820854 
	C193.042358,105.154373 194.595016,104.993996 196.090988,104.994537 
	C218.893997,105.002747 241.696991,105.000244 265.500000,105.000244 
M40.208282,297.133484 
	C35.265804,297.133484 30.323326,297.133484 25.317993,297.133484 
	C25.317993,313.262817 25.317993,328.984070 25.317993,344.632324 
	C30.698915,344.632324 35.758812,344.632324 40.871941,344.632324 
	C40.871941,328.784027 40.871941,313.300934 40.208282,297.133484 
M252.963730,399.544159 
	C255.207458,401.294006 257.451172,403.043823 260.292145,405.259460 
	C260.838715,398.832153 261.400146,393.395569 261.682861,387.944519 
	C261.740997,386.823761 260.977570,385.473541 260.220551,384.526825 
	C254.130524,376.910858 247.951263,369.366302 241.906647,361.931915 
	C240.199966,365.761261 237.883865,370.315338 236.189560,375.090088 
	C235.551758,376.887451 235.563416,379.837799 236.636719,381.162292 
	C241.643631,387.341095 247.125168,393.135254 252.963730,399.544159 
z"/>
<path fill="#E5E8EC" opacity="1.000000" stroke="none" 
	d="
M237.679840,234.677719 
	C233.281067,239.444168 229.132797,243.960007 224.710236,248.774475 
	C206.337860,225.245590 182.725906,209.919983 153.286407,203.429672 
	C153.286407,197.448776 153.286407,191.523651 153.286407,185.296753 
	C264.949615,185.296753 376.679443,185.296753 488.767334,185.296753 
	C488.841248,186.635498 488.989716,188.071014 488.989868,189.506561 
	C489.000793,285.665161 489.001434,381.823730 488.996918,477.982330 
	C488.996521,486.508759 486.520966,488.996552 478.035034,488.996918 
	C373.377167,489.001373 268.719299,489.001160 164.061432,488.997314 
	C155.492966,488.996979 153.011017,486.544830 153.003357,478.086548 
	C152.991592,465.093689 153.000275,452.100830 153.000275,438.669159 
	C182.392471,432.211517 206.262192,416.941040 223.495560,394.732666 
	C230.335281,400.734070 237.096695,406.844177 244.064804,412.708679 
	C247.748444,415.808960 251.658829,418.691223 255.721054,421.271729 
	C258.324432,422.925476 259.071106,424.652527 258.761963,427.732941 
	C257.632172,438.991821 256.868896,450.287476 255.894653,462.481873 
	C262.319031,459.264160 268.154144,456.323730 274.004974,453.414978 
	C285.355682,447.772034 296.942047,447.308350 308.816376,451.702789 
	C311.506439,452.698334 312.978577,454.053772 313.717743,457.095062 
	C317.165283,471.280396 331.794861,477.263153 344.254913,469.721130 
	C348.800385,466.969757 353.132477,463.865875 357.988159,460.639618 
	C362.810211,466.868591 368.915863,471.076721 376.786774,472.576752 
	C393.694305,475.798950 413.297791,464.116913 416.291382,448.347931 
	C417.128662,443.937531 416.522888,439.057159 415.672852,434.563812 
	C413.974457,425.586182 411.817352,416.683044 409.498352,407.841278 
	C408.596924,404.404266 409.222321,402.094482 411.549133,399.383179 
	C470.116608,331.138580 436.952942,226.003464 349.669647,204.667267 
	C307.505371,194.360306 269.952545,204.887207 237.679840,234.677719 
z"/>
<path fill="#69D5F3" opacity="1.000000" stroke="none" 
	d="
M166.411987,382.465759 
	C121.882172,407.620087 68.958054,384.332794 58.407677,335.285553 
	C50.093632,296.634674 76.744171,257.144989 115.865211,250.147278 
	C156.179733,242.936096 194.898972,270.474121 200.073517,310.545776 
	C204.040588,341.266907 192.305481,365.085388 166.411987,382.465759 
z"/>
<path fill="#CCD1D9" opacity="1.000000" stroke="none" 
	d="
M370.000000,168.998489 
	C297.531586,168.998489 225.563156,168.998489 153.001511,168.998489 
	C153.001511,157.998367 153.001511,147.233856 153.001511,136.469330 
	C153.001511,121.812836 153.814896,121.001526 168.509018,121.001526 
	C271.330231,121.001526 374.151459,121.001198 476.972687,121.002037 
	C486.871918,121.002113 488.995758,123.114754 488.997925,132.958405 
	C489.000519,144.769577 488.998535,156.580750 488.998535,168.998489 
	C449.346436,168.998489 409.923218,168.998489 370.000000,168.998489 
M438.307007,152.999054 
	C439.203583,152.213531 440.826508,151.470428 440.875275,150.635391 
	C441.133728,146.209686 440.996704,141.760895 440.996704,137.243713 
	C419.447174,137.243713 398.398712,137.243713 377.256805,137.243713 
	C377.256805,142.553299 377.256805,147.616074 377.256805,152.999771 
	C397.453094,152.999771 417.394470,152.999771 438.307007,152.999054 
M342.499451,152.999847 
	C348.588379,152.999847 354.677307,152.999847 360.693573,152.999847 
	C360.693573,147.342300 360.693573,142.281128 360.693573,137.295776 
	C344.671051,137.295776 328.956573,137.295776 313.306152,137.295776 
	C313.306152,142.658859 313.306152,147.719193 313.306152,152.999847 
	C322.907074,152.999847 332.203339,152.999847 342.499451,152.999847 
M249.000168,148.389313 
	C249.000168,149.824997 249.000168,151.260681 249.000168,152.734131 
	C254.587692,152.734131 259.643768,152.734131 264.731934,152.734131 
	C264.731934,147.408051 264.731934,142.351822 264.731934,137.270294 
	C259.402832,137.270294 254.346405,137.270294 249.000153,137.270294 
	C249.000153,140.830429 249.000153,144.123901 249.000168,148.389313 
M232.999847,145.480087 
	C232.999847,142.721542 232.999847,139.962997 232.999847,137.307327 
	C227.328827,137.307327 222.272324,137.307327 217.309433,137.307327 
	C217.309433,142.675430 217.309433,147.732040 217.309433,152.688232 
	C222.679443,152.688232 227.735809,152.688232 232.999847,152.688232 
	C232.999847,150.403198 232.999847,148.428299 232.999847,145.480087 
M189.614258,152.999847 
	C193.359619,152.999847 197.104980,152.999847 200.660889,152.999847 
	C200.660889,147.263397 200.660889,142.203735 200.660889,137.342316 
	C195.256577,137.342316 190.196487,137.342316 185.000458,137.342316 
	C185.000458,141.660950 185.203918,145.652710 184.934616,149.612320 
	C184.727554,152.656845 186.029495,153.389526 189.614258,152.999847 
z"/>
<path fill="#68D5F3" opacity="1.000000" stroke="none" 
	d="
M265.337219,275.359985 
	C285.049469,253.130127 309.298340,244.350861 337.878174,251.206985 
	C364.968323,257.705719 382.443481,275.367218 390.390472,302.108002 
	C393.659454,313.107819 394.010040,324.308136 390.992279,336.552673 
	C384.985596,327.596497 377.210693,322.583099 367.375275,321.320557 
	C358.259918,320.150421 349.484894,322.037079 341.039948,325.458801 
	C335.650513,327.642487 330.216827,329.770447 325.024567,332.366608 
	C322.058716,333.849487 320.318085,333.233643 318.234894,330.967651 
	C310.776459,322.854767 301.584808,319.731934 290.696228,322.002594 
	C282.307800,323.751831 276.600525,329.127625 271.994080,335.939575 
	C266.535675,344.011414 263.878143,352.983063 263.714020,362.833527 
	C249.221466,348.734833 239.072220,307.688751 265.337219,275.359985 
z"/>
<path fill="#ED7284" opacity="1.000000" stroke="none" 
	d="
M350.180573,424.748383 
	C350.856201,430.823120 351.691040,436.436401 351.981720,442.077667 
	C352.062469,443.645660 350.939941,445.828644 349.662872,446.810730 
	C345.714661,449.847015 341.533905,452.628693 337.213654,455.109070 
	C335.576904,456.048798 332.826263,456.763977 331.471130,456.002167 
	C330.081421,455.220978 329.108307,452.511963 329.098541,450.640717 
	C328.953003,422.822083 328.997894,395.002441 328.997742,367.183044 
	C328.997742,365.361725 328.997742,363.540405 328.997742,361.361023 
	C323.765686,361.361023 318.704224,361.361023 313.188934,361.361023 
	C313.188934,386.003571 313.188934,410.744110 313.188934,436.027435 
	C299.987305,431.841095 287.246033,431.616516 274.090546,435.941193 
	C274.816315,425.844086 275.471313,416.097168 276.227386,406.358032 
	C277.425903,390.919525 278.693542,375.486359 279.929016,360.050690 
	C280.537598,352.446930 283.485535,345.869141 288.905273,340.531860 
	C293.703552,335.806610 299.662262,335.937286 304.949677,340.803528 
	C301.371826,342.393158 297.903137,343.934326 293.928406,345.700287 
	C295.965881,350.476685 297.952484,355.133820 300.141266,360.264923 
	C305.374603,358.066803 310.371918,355.995361 315.347229,353.872314 
	C325.590424,349.501434 335.705811,344.797607 346.107025,340.844574 
	C351.303925,338.869446 356.965302,337.568054 362.503693,337.168030 
	C370.886047,336.562592 377.860657,341.949249 379.787567,350.126709 
	C386.880402,380.227325 393.794861,410.370361 400.669495,440.521790 
	C402.019989,446.445007 399.114624,451.408203 393.462952,453.738892 
	C393.003723,453.928284 392.504272,454.017670 392.034729,454.184906 
	C376.141479,459.844055 369.599487,455.459869 367.883575,438.601074 
	C365.778900,417.923096 363.288055,397.284424 360.911133,376.157532 
	C355.583344,376.759674 350.559540,377.327454 345.111145,377.943237 
	C346.811768,393.637207 348.472961,408.967346 350.180573,424.748383 
z"/>
<path fill="#A8B0BB" opacity="1.000000" stroke="none" 
	d="
M108.192070,219.122528 
	C165.800491,208.993668 217.565704,242.749893 230.551636,298.574310 
	C244.264999,357.525818 201.872681,417.397339 141.648605,424.133820 
	C96.491585,429.184967 53.245872,405.253998 34.961742,365.085205 
	C34.425537,363.907166 33.998634,362.679382 33.557533,361.567474 
	C38.989960,360.889679 44.175102,360.242737 49.917004,359.526337 
	C60.890438,381.092041 78.088310,396.741425 101.845238,404.623901 
	C119.764236,410.569336 137.875519,410.532562 155.866699,404.791687 
	C192.668396,393.048431 217.412582,358.444641 216.977188,319.533783 
	C216.551575,281.497345 190.861618,247.942474 154.035156,236.636856 
	C119.625763,226.073273 72.320717,238.075134 49.623314,282.431122 
	C44.239552,281.760376 39.039623,281.112518 33.245220,280.390594 
	C48.243088,247.914200 72.937393,227.456436 108.192070,219.122528 
z"/>
<path fill="#EF7385" opacity="1.000000" stroke="none" 
	d="
M289.000000,25.001150 
	C304.648102,25.001207 319.796234,24.979315 334.944244,25.010912 
	C342.138733,25.025917 344.954102,27.807180 344.987823,34.923073 
	C345.032013,44.244766 345.026031,53.566933 344.989960,62.888691 
	C344.961945,70.129349 342.214325,72.982803 335.127319,72.986389 
	C288.351349,73.010056 241.575394,73.010315 194.799423,72.985718 
	C187.918991,72.982094 185.054565,70.129623 185.015411,63.321495 
	C184.960846,53.833447 184.967545,44.344688 185.012497,34.856541 
	C185.046097,27.765423 187.860809,25.015203 195.114655,25.010288 
	C226.243088,24.989199 257.371552,25.001205 289.000000,25.001150 
M273.500000,56.999195 
	C291.898346,56.999195 310.296692,56.999195 328.672424,56.999195 
	C328.672424,51.347736 328.672424,46.295940 328.672424,41.296181 
	C293.999847,41.296181 259.654907,41.296181 225.327240,41.296181 
	C225.327240,46.649536 225.327240,51.702728 225.327240,56.999195 
	C241.268295,56.999195 256.884155,56.999195 273.500000,56.999195 
z"/>
<path fill="#A7AFBA" opacity="1.000000" stroke="none" 
	d="
M423.515381,303.554504 
	C428.026093,332.823822 421.652130,359.020050 403.998016,383.558380 
	C402.211517,375.873047 400.550568,369.135284 399.160919,362.342010 
	C398.933716,361.231140 399.792603,359.824921 400.335327,358.640289 
	C424.665131,305.532043 394.595795,246.285187 337.351746,234.573044 
	C301.389069,227.215073 263.489990,244.726028 244.800186,277.334137 
	C244.143341,278.480133 243.472565,279.618164 242.520126,281.255219 
	C239.917252,275.557709 237.329269,270.320953 235.211975,264.900330 
	C234.784042,263.804749 235.833710,261.794678 236.713730,260.575439 
	C253.828979,236.862778 276.820160,222.237640 305.759216,218.194153 
	C360.607971,210.530441 409.770599,244.548630 422.432251,298.246124 
	C422.813263,299.862000 423.079712,301.504913 423.515381,303.554504 
z"/>
<path fill="#EBC09B" opacity="1.000000" stroke="none" 
	d="
M393.000000,62.000000 
	C393.000000,49.528645 393.000000,37.557293 393.000000,25.293949 
	C414.327454,25.293949 435.387756,25.293949 456.724731,25.293949 
	C456.724731,51.698391 456.724731,78.091026 456.724731,104.564056 
	C449.316223,105.987854 443.191528,105.111725 437.754333,98.712051 
	C430.778961,90.501976 422.646667,83.274841 414.894257,75.505348 
	C411.067993,79.427353 407.514740,83.069542 403.720825,86.958405 
	C409.495148,92.456871 415.378143,98.058830 422.281067,104.632019 
	C411.653473,104.632019 402.639618,104.632019 393.000000,104.632019 
	C393.000000,90.682129 393.000000,76.591064 393.000000,62.000000 
M438.573608,81.978889 
	C439.804962,83.759666 441.036316,85.540451 442.084900,87.056892 
	C446.877075,82.456772 450.545898,78.934975 453.925568,75.690773 
	C440.651459,62.415550 427.513062,49.276031 414.269592,36.031452 
	C410.928955,39.379730 407.336121,42.980766 403.367859,46.958088 
	C414.990753,58.521915 426.527008,69.999527 438.573608,81.978889 
z"/>
<path fill="#FBD670" opacity="1.000000" stroke="none" 
	d="
M265.000000,105.000244 
	C241.696991,105.000244 218.893997,105.002747 196.090988,104.994537 
	C194.595016,104.993996 193.042358,105.154373 191.613922,104.820854 
	C187.610352,103.886108 185.126511,101.314293 185.088669,97.125214 
	C185.048706,92.702469 187.585678,90.024475 191.852631,89.139320 
	C193.294083,88.840294 194.837357,89.004028 196.334106,89.003860 
	C242.106552,88.998848 287.878998,88.999748 333.651459,88.999847 
	C334.483673,88.999855 335.316803,88.976181 336.147980,89.006012 
	C341.546661,89.199722 345.040405,92.419945 344.964508,97.117989 
	C344.888916,101.796104 341.397156,104.840096 335.906219,104.994347 
	C334.741974,105.027054 333.576111,105.000198 332.410980,105.000198 
	C310.107330,105.000267 287.803650,105.000244 265.000000,105.000244 
z"/>
<path fill="#969FAA" opacity="1.000000" stroke="none" 
	d="
M40.540112,297.475677 
	C40.871941,313.300934 40.871941,328.784027 40.871941,344.632324 
	C35.758812,344.632324 30.698915,344.632324 25.317993,344.632324 
	C25.317993,328.984070 25.317993,313.262817 25.317993,297.133484 
	C30.323326,297.133484 35.265804,297.133484 40.540112,297.475677 
z"/>
<path fill="#A7AFB9" opacity="1.000000" stroke="none" 
	d="
M252.700348,399.305542 
	C247.125168,393.135254 241.643631,387.341095 236.636719,381.162292 
	C235.563416,379.837799 235.551758,376.887451 236.189560,375.090088 
	C237.883865,370.315338 240.199966,365.761261 241.906647,361.931915 
	C247.951263,369.366302 254.130524,376.910858 260.220551,384.526825 
	C260.977570,385.473541 261.740997,386.823761 261.682861,387.944519 
	C261.400146,393.395569 260.838715,398.832153 260.292145,405.259460 
	C257.451172,403.043823 255.207458,401.294006 252.700348,399.305542 
z"/>
<path fill="#000000" opacity="1.000000" stroke="none" 
	d="
M437.821411,152.999420 
	C417.394470,152.999771 397.453094,152.999771 377.256805,152.999771 
	C377.256805,147.616074 377.256805,142.553299 377.256805,137.243713 
	C398.398712,137.243713 419.447174,137.243713 440.996704,137.243713 
	C440.996704,141.760895 441.133728,146.209686 440.875275,150.635391 
	C440.826508,151.470428 439.203583,152.213531 437.821411,152.999420 
z"/>
<path fill="#000000" opacity="1.000000" stroke="none" 
	d="
M341.999512,152.999847 
	C332.203339,152.999847 322.907074,152.999847 313.306152,152.999847 
	C313.306152,147.719193 313.306152,142.658859 313.306152,137.295776 
	C328.956573,137.295776 344.671051,137.295776 360.693573,137.295776 
	C360.693573,142.281128 360.693573,147.342300 360.693573,152.999847 
	C354.677307,152.999847 348.588379,152.999847 341.999512,152.999847 
z"/>
<path fill="#000000" opacity="1.000000" stroke="none" 
	d="
M249.000153,147.903336 
	C249.000153,144.123901 249.000153,140.830429 249.000153,137.270294 
	C254.346405,137.270294 259.402832,137.270294 264.731934,137.270294 
	C264.731934,142.351822 264.731934,147.408051 264.731934,152.734131 
	C259.643768,152.734131 254.587692,152.734131 249.000168,152.734131 
	C249.000168,151.260681 249.000168,149.824997 249.000153,147.903336 
z"/>
<path fill="#000000" opacity="1.000000" stroke="none" 
	d="
M232.999847,145.966736 
	C232.999847,148.428299 232.999847,150.403198 232.999847,152.688232 
	C227.735809,152.688232 222.679443,152.688232 217.309433,152.688232 
	C217.309433,147.732040 217.309433,142.675430 217.309433,137.307327 
	C222.272324,137.307327 227.328827,137.307327 232.999847,137.307327 
	C232.999847,139.962997 232.999847,142.721542 232.999847,145.966736 
z"/>
<path fill="#000000" opacity="1.000000" stroke="none" 
	d="
M189.133362,152.999817 
	C186.029495,153.389526 184.727554,152.656845 184.934616,149.612320 
	C185.203918,145.652710 185.000458,141.660950 185.000458,137.342316 
	C190.196487,137.342316 195.256577,137.342316 200.660889,137.342316 
	C200.660889,142.203735 200.660889,147.263397 200.660889,152.999847 
	C197.104980,152.999847 193.359619,152.999847 189.133362,152.999817 
z"/>
<path fill="#000000" opacity="1.000000" stroke="none" 
	d="
M273.000000,56.999195 
	C256.884155,56.999195 241.268295,56.999195 225.327240,56.999195 
	C225.327240,51.702728 225.327240,46.649536 225.327240,41.296181 
	C259.654907,41.296181 293.999847,41.296181 328.672424,41.296181 
	C328.672424,46.295940 328.672424,51.347736 328.672424,56.999195 
	C310.296692,56.999195 291.898346,56.999195 273.000000,56.999195 
z"/>
<path fill="#060504" opacity="1.000000" stroke="none" 
	d="
M438.318420,81.728012 
	C426.527008,69.999527 414.990753,58.521915 403.367859,46.958088 
	C407.336121,42.980766 410.928955,39.379730 414.269592,36.031452 
	C427.513062,49.276031 440.651459,62.415550 453.925568,75.690773 
	C450.545898,78.934975 446.877075,82.456772 442.084900,87.056892 
	C441.036316,85.540451 439.804962,83.759666 438.318420,81.728012 
z"/>
</svg>