<svg version="1.1" id="Layer_1" xmlns="http://www.w3.org/2000/svg" xmlns:xlink="http://www.w3.org/1999/xlink" x="0px" y="0px"
	 width="100%" viewBox="0 0 512 512" enable-background="new 0 0 512 512" xml:space="preserve">
<path fill="#000000" opacity="1.000000" stroke="none" 
	d="
M273.000000,513.000000 
	C183.355087,513.000000 94.210152,512.978333 5.065363,513.085754 
	C1.785432,513.089722 0.895078,512.625122 0.897568,509.067139 
	C1.015112,341.108185 1.017002,173.149170 0.891070,5.190250 
	C0.888245,1.422896 1.862204,0.914325 5.307806,0.916290 
	C173.100143,1.011978 340.892548,1.011672 508.684875,0.917964 
	C512.110718,0.916050 513.113281,1.395368 513.110352,5.182933 
	C512.982666,173.141846 512.985107,341.100891 513.101624,509.059845 
	C513.104065,512.602905 512.237610,513.091858 508.941925,513.087158 
	C430.461395,512.974976 351.980682,513.000000 273.000000,513.000000 
z"/>
<path fill="#241F20" opacity="1.000000" stroke="none" 
	d="
M150.002075,322.000000 
	C150.002075,244.669067 150.000626,167.838120 150.003525,91.007187 
	C150.003998,78.510574 155.452927,73.004524 167.828537,73.003632 
	C227.326675,72.999321 286.824829,72.998840 346.322968,73.004089 
	C358.422394,73.005157 363.994934,78.576057 363.995392,90.670563 
	C363.999207,193.500687 363.998901,296.330811 363.995819,399.160950 
	C363.995453,411.345886 359.885956,415.919037 347.673676,416.954315 
	C344.816254,417.196594 343.948639,418.451569 343.987061,421.057831 
	C344.058319,425.889862 343.874512,430.727936 344.033997,435.555634 
	C344.156464,439.263672 342.935120,441.093750 338.907837,441.042175 
	C327.576691,440.897156 316.241882,440.921234 304.909973,441.030212 
	C301.195221,441.065918 299.876099,439.421997 299.972321,435.876282 
	C300.107941,430.880310 299.936371,425.876740 300.011719,420.878143 
	C300.053070,418.134247 298.881348,416.985535 296.132233,416.989441 
	C270.133148,417.026154 244.133911,417.032806 218.134857,416.977051 
	C215.161423,416.970673 213.905792,418.112000 213.976593,421.111450 
	C214.090607,425.941803 213.868774,430.781464 214.035065,435.608734 
	C214.164337,439.360352 212.853470,441.096191 208.864807,441.043549 
	C197.700439,440.896240 186.530960,440.874878 175.367508,441.053955 
	C171.117523,441.122131 169.793091,439.288269 169.958435,435.329590 
	C170.153015,430.671387 169.926758,425.997101 170.021027,421.332581 
	C170.077576,418.534790 169.245590,417.145477 166.100266,416.942535 
	C154.346039,416.184174 150.003448,411.350769 150.002594,399.496582 
	C150.000717,373.831055 150.002045,348.165527 150.002075,322.000000 
z"/>
<path fill="#F6D7A9" opacity="1.000000" stroke="none" 
	d="
M168.554718,188.568268 
	C170.412048,188.163467 171.906509,188.043411 173.400986,188.043182 
	C233.046677,188.033722 292.692505,188.087067 352.337769,187.928665 
	C356.731506,187.917007 357.835297,188.971054 357.825409,193.393188 
	C357.672485,261.702148 357.722107,330.011566 357.714630,398.320862 
	C357.713562,408.067108 354.848022,410.996887 345.348663,410.996979 
	C287.868927,410.997620 230.389191,410.989441 172.443695,410.916718 
	C168.285629,409.706390 166.660385,407.188171 166.760757,403.347107 
	C166.817169,401.188599 166.678986,399.020386 166.678726,396.855896 
	C166.670959,330.920990 166.657135,264.986084 166.720001,199.051208 
	C166.723251,195.644806 165.888245,192.021057 168.554718,188.568268 
z"/>
<path fill="#F6D6A8" opacity="1.000000" stroke="none" 
	d="
M171.533493,79.805069 
	C173.638290,79.515831 175.292282,79.343918 176.946304,79.343498 
	C232.722610,79.329544 288.498901,79.330582 344.275208,79.333038 
	C355.227081,79.333519 357.718872,81.859268 357.720215,92.955872 
	C357.723602,121.093773 357.654877,149.232025 357.802917,177.369141 
	C357.822052,181.007828 357.018372,182.137878 353.168457,182.129105 
	C292.064636,181.989914 230.960434,182.020630 169.389236,181.929169 
	C166.740677,180.235474 166.757553,177.830917 166.749817,175.510193 
	C166.652679,146.394058 166.600830,117.277794 166.770386,88.161736 
	C166.790421,84.719215 167.183197,81.419952 171.533493,79.805069 
z"/>
<path fill="#F8E7D3" opacity="1.000000" stroke="none" 
	d="
M168.468292,188.144379 
	C168.928421,258.790222 168.945129,329.352844 168.933609,399.915436 
	C168.932999,403.619995 168.866913,407.279694 171.792877,410.547607 
	C169.984253,410.902802 167.986465,411.064636 165.997650,410.989441 
	C160.179718,410.769501 156.793854,407.519348 156.315582,401.716370 
	C156.179245,400.062134 156.264969,398.388763 156.264938,396.724182 
	C156.263321,329.467651 156.263519,262.211121 156.263657,194.954575 
	C156.263672,188.020599 156.264221,188.018066 163.025375,188.022934 
	C164.689911,188.024139 166.354446,188.047791 168.468292,188.144379 
z"/>
<path fill="#F9E7D4" opacity="1.000000" stroke="none" 
	d="
M171.558563,79.484100 
	C169.419937,83.117393 168.873734,87.050690 168.889481,91.341614 
	C168.998962,121.203377 168.940552,151.065765 168.929062,181.386902 
	C156.264343,182.668106 156.264343,182.668106 156.264343,170.029663 
	C156.264343,144.698868 156.263687,119.368073 156.264618,94.037277 
	C156.265091,81.297600 158.421219,79.170525 171.558563,79.484100 
z"/>
<path fill="#F74E77" opacity="1.000000" stroke="none" 
	d="
M191.999451,416.983002 
	C193.662643,416.983002 194.834473,416.902679 195.991852,416.997772 
	C199.747040,417.306335 205.227859,415.206329 206.885696,417.878784 
	C209.374344,421.890533 207.595444,427.552032 207.682053,432.509399 
	C207.719482,434.651764 206.065430,434.691406 204.511978,434.692261 
	C196.189056,434.696777 187.865417,434.634399 179.543655,434.733002 
	C177.009811,434.763000 176.152344,433.917969 176.013977,431.297852 
	C175.257843,416.979126 175.184296,416.983002 189.503952,416.983002 
	C190.169785,416.983002 190.835632,416.983002 191.999451,416.983002 
z"/>
<path fill="#F74E77" opacity="1.000000" stroke="none" 
	d="
M324.983582,434.702332 
	C319.493378,434.699646 314.499115,434.637390 309.507324,434.721039 
	C307.200287,434.759735 306.047455,433.908173 306.259888,431.523438 
	C306.274536,431.358521 306.263794,431.190430 306.254852,431.024414 
	C305.499817,416.982941 305.499756,416.982697 319.494598,416.983063 
	C324.487885,416.983154 329.484039,417.086182 334.473206,416.942963 
	C336.994080,416.870605 338.277374,417.606659 337.931335,420.299866 
	C337.847168,420.954651 337.920410,421.629730 337.922791,422.295502 
	C337.967072,434.702850 337.967133,434.702850 324.983582,434.702332 
z"/>
<path fill="#262424" opacity="1.000000" stroke="none" 
	d="
M176.089355,235.000244 
	C176.090729,228.673462 175.987000,222.844131 176.123489,217.020416 
	C176.255600,211.383316 179.575043,207.860092 184.501404,207.787109 
	C189.721283,207.709793 193.081848,211.232269 193.088242,217.204529 
	C193.131760,257.826111 193.126389,298.447815 193.095413,339.069458 
	C193.090881,345.023865 189.797821,348.811066 184.815567,348.914825 
	C179.718338,349.020996 176.122177,345.025452 176.112579,338.885529 
	C176.066177,309.251770 176.090256,279.617920 176.089386,249.984085 
	C176.089233,245.156113 176.089355,240.328140 176.089355,235.000244 
z"/>
<path fill="#272425" opacity="1.000000" stroke="none" 
	d="
M176.090118,133.040070 
	C176.096710,129.722046 175.963531,126.887909 176.140335,124.073250 
	C176.462875,118.938370 180.011673,115.442993 184.670670,115.441498 
	C189.345673,115.439995 192.979996,118.978973 193.053940,124.103447 
	C193.195419,133.907181 193.184341,143.715408 193.065094,153.519684 
	C193.000549,158.826935 189.697968,162.184250 184.886597,162.298233 
	C179.900803,162.416367 176.304932,158.979492 176.148300,153.475449 
	C175.959259,146.832703 176.094986,140.180710 176.090118,133.040070 
z"/>
<path fill="#22C8CC" opacity="1.000000" stroke="none" 
	d="
M182.110596,233.001648 
	C182.111923,227.677429 182.098251,222.852615 182.122147,218.028000 
	C182.131363,216.165115 182.119537,213.996857 184.674072,214.003143 
	C187.324707,214.009659 187.078690,216.268051 187.081345,218.076080 
	C187.100403,231.052902 187.093948,244.029770 187.094193,257.006622 
	C187.094681,283.293060 187.094467,309.579529 187.093628,335.865967 
	C187.093597,337.030518 187.074127,338.195129 187.081741,339.359589 
	C187.092300,340.973663 186.759796,342.574005 184.882065,342.676300 
	C182.737686,342.793121 182.180679,341.139282 182.134674,339.312134 
	C182.101166,337.981903 182.111435,336.650482 182.111404,335.319580 
	C182.110397,301.380096 182.110611,267.440643 182.110596,233.001648 
z"/>
<path fill="#22C7CB" opacity="1.000000" stroke="none" 
	d="
M182.111115,151.619446 
	C182.110077,142.833023 182.094971,134.511566 182.123077,126.190262 
	C182.129761,124.210548 181.904129,121.737556 184.806549,121.805717 
	C187.434387,121.867424 187.075424,124.216377 187.081177,125.997719 
	C187.109161,134.651886 187.105957,143.306229 187.083557,151.960419 
	C187.078888,153.763306 187.358444,156.026215 184.711105,156.071655 
	C182.142349,156.115738 182.177261,153.949707 182.111115,151.619446 
z"/>
</svg>